<mxfile host="app.diagrams.net" modified="2023-12-12T12:20:22.879Z" agent="Mozilla/5.0 (Windows NT 10.0; Win64; x64) AppleWebKit/537.36 (KHTML, like Gecko) Chrome/120.0.0.0 Safari/537.36" etag="PGs1ElesVGIuSkg1Wyu_" version="22.1.7" type="github">
  <diagram name="Halaman-1" id="wRBTEd7lniKcdnhh70Hd">
    <mxGraphModel dx="4760" dy="1749" grid="0" gridSize="10" guides="1" tooltips="1" connect="1" arrows="1" fold="1" page="0" pageScale="1" pageWidth="827" pageHeight="1169" math="0" shadow="0">
      <root>
        <mxCell id="0" />
        <mxCell id="1" parent="0" />
        <mxCell id="bTMUhpa-gcWHCfG6rpUr-32" style="edgeStyle=orthogonalEdgeStyle;shape=connector;rounded=0;orthogonalLoop=1;jettySize=auto;html=1;entryX=0.5;entryY=0;entryDx=0;entryDy=0;labelBackgroundColor=default;strokeColor=default;align=center;verticalAlign=middle;fontFamily=Helvetica;fontSize=12;fontColor=default;endArrow=classic;startSize=8;endSize=8;exitX=0.5;exitY=1;exitDx=0;exitDy=0;" edge="1" parent="1" source="bTMUhpa-gcWHCfG6rpUr-1" target="bTMUhpa-gcWHCfG6rpUr-4">
          <mxGeometry relative="1" as="geometry" />
        </mxCell>
        <mxCell id="bTMUhpa-gcWHCfG6rpUr-33" style="edgeStyle=orthogonalEdgeStyle;shape=connector;rounded=0;orthogonalLoop=1;jettySize=auto;html=1;entryX=0.5;entryY=0;entryDx=0;entryDy=0;labelBackgroundColor=default;strokeColor=default;align=center;verticalAlign=middle;fontFamily=Helvetica;fontSize=12;fontColor=default;endArrow=classic;startSize=8;endSize=8;" edge="1" parent="1" source="bTMUhpa-gcWHCfG6rpUr-1" target="bTMUhpa-gcWHCfG6rpUr-3">
          <mxGeometry relative="1" as="geometry">
            <Array as="points">
              <mxPoint x="383" y="226" />
              <mxPoint x="-701" y="226" />
            </Array>
          </mxGeometry>
        </mxCell>
        <mxCell id="bTMUhpa-gcWHCfG6rpUr-34" style="edgeStyle=orthogonalEdgeStyle;shape=connector;rounded=0;orthogonalLoop=1;jettySize=auto;html=1;labelBackgroundColor=default;strokeColor=default;align=center;verticalAlign=middle;fontFamily=Helvetica;fontSize=12;fontColor=default;endArrow=classic;startSize=8;endSize=8;" edge="1" parent="1" source="bTMUhpa-gcWHCfG6rpUr-1" target="bTMUhpa-gcWHCfG6rpUr-5">
          <mxGeometry relative="1" as="geometry">
            <Array as="points">
              <mxPoint x="383" y="226" />
              <mxPoint x="757" y="226" />
            </Array>
          </mxGeometry>
        </mxCell>
        <mxCell id="bTMUhpa-gcWHCfG6rpUr-35" style="edgeStyle=orthogonalEdgeStyle;shape=connector;rounded=0;orthogonalLoop=1;jettySize=auto;html=1;entryX=0.5;entryY=0;entryDx=0;entryDy=0;labelBackgroundColor=default;strokeColor=default;align=center;verticalAlign=middle;fontFamily=Helvetica;fontSize=12;fontColor=default;endArrow=classic;startSize=8;endSize=8;" edge="1" parent="1" source="bTMUhpa-gcWHCfG6rpUr-1" target="bTMUhpa-gcWHCfG6rpUr-7">
          <mxGeometry relative="1" as="geometry">
            <Array as="points">
              <mxPoint x="383" y="226" />
              <mxPoint x="1598" y="226" />
            </Array>
          </mxGeometry>
        </mxCell>
        <mxCell id="bTMUhpa-gcWHCfG6rpUr-1" value="&lt;b&gt;Pekerjaan Pemecahan Material Batu di Susuk Estate dan Sungai Petar Estate&lt;/b&gt;" style="rounded=1;whiteSpace=wrap;html=1;fontSize=16;labelBackgroundColor=none;" vertex="1" parent="1">
          <mxGeometry x="220" y="118" width="326" height="54" as="geometry" />
        </mxCell>
        <mxCell id="bTMUhpa-gcWHCfG6rpUr-2" value="&lt;h1&gt;WBS&lt;/h1&gt;&lt;p&gt;Work Breakdown Structure&lt;/p&gt;" style="text;html=1;strokeColor=none;fillColor=none;spacing=5;spacingTop=-20;whiteSpace=wrap;overflow=hidden;rounded=0;fontSize=16;labelBackgroundColor=none;" vertex="1" parent="1">
          <mxGeometry x="-1003" y="-5" width="299" height="105" as="geometry" />
        </mxCell>
        <mxCell id="bTMUhpa-gcWHCfG6rpUr-31" value="" style="group" vertex="1" connectable="0" parent="1">
          <mxGeometry x="-1003" y="279" width="2982" height="162" as="geometry" />
        </mxCell>
        <mxCell id="bTMUhpa-gcWHCfG6rpUr-3" value="Pekerjaan Persiapan" style="rounded=0;whiteSpace=wrap;html=1;fontSize=16;labelBackgroundColor=none;" vertex="1" parent="bTMUhpa-gcWHCfG6rpUr-31">
          <mxGeometry x="203" width="199" height="60" as="geometry" />
        </mxCell>
        <mxCell id="bTMUhpa-gcWHCfG6rpUr-4" value="Pekerjaan Penambangan Material Batu" style="rounded=0;whiteSpace=wrap;html=1;fontSize=16;labelBackgroundColor=none;" vertex="1" parent="bTMUhpa-gcWHCfG6rpUr-31">
          <mxGeometry x="888" width="199" height="60" as="geometry" />
        </mxCell>
        <mxCell id="bTMUhpa-gcWHCfG6rpUr-5" value="Pekerjaan Pemecahan Material Batu&amp;nbsp;" style="rounded=0;whiteSpace=wrap;html=1;fontSize=16;labelBackgroundColor=none;" vertex="1" parent="bTMUhpa-gcWHCfG6rpUr-31">
          <mxGeometry x="1660" width="200" height="60" as="geometry" />
        </mxCell>
        <mxCell id="bTMUhpa-gcWHCfG6rpUr-7" value="Pekerjaan Pemblendingan Batu dengan Tanah" style="rounded=0;whiteSpace=wrap;html=1;fontSize=16;labelBackgroundColor=none;" vertex="1" parent="bTMUhpa-gcWHCfG6rpUr-31">
          <mxGeometry x="2499" width="203" height="60" as="geometry" />
        </mxCell>
        <mxCell id="bTMUhpa-gcWHCfG6rpUr-8" value="Pembersihan Lahan Quarry" style="rounded=0;whiteSpace=wrap;html=1;fontSize=16;labelBackgroundColor=none;" vertex="1" parent="bTMUhpa-gcWHCfG6rpUr-31">
          <mxGeometry y="101" width="200" height="60" as="geometry" />
        </mxCell>
        <mxCell id="bTMUhpa-gcWHCfG6rpUr-19" style="edgeStyle=orthogonalEdgeStyle;rounded=0;orthogonalLoop=1;jettySize=auto;html=1;entryX=1;entryY=0.5;entryDx=0;entryDy=0;fontSize=12;startSize=8;endSize=8;exitX=0.5;exitY=1;exitDx=0;exitDy=0;labelBackgroundColor=none;fontColor=default;" edge="1" parent="bTMUhpa-gcWHCfG6rpUr-31" source="bTMUhpa-gcWHCfG6rpUr-3" target="bTMUhpa-gcWHCfG6rpUr-8">
          <mxGeometry relative="1" as="geometry" />
        </mxCell>
        <mxCell id="bTMUhpa-gcWHCfG6rpUr-9" value="Pengangkutan Sampat ke Tempat Pembuangan" style="rounded=0;whiteSpace=wrap;html=1;fontSize=16;labelBackgroundColor=none;" vertex="1" parent="bTMUhpa-gcWHCfG6rpUr-31">
          <mxGeometry x="402" y="101" width="199" height="60" as="geometry" />
        </mxCell>
        <mxCell id="bTMUhpa-gcWHCfG6rpUr-20" style="edgeStyle=orthogonalEdgeStyle;rounded=0;orthogonalLoop=1;jettySize=auto;html=1;entryX=0;entryY=0.5;entryDx=0;entryDy=0;fontSize=12;startSize=8;endSize=8;labelBackgroundColor=none;fontColor=default;" edge="1" parent="bTMUhpa-gcWHCfG6rpUr-31" source="bTMUhpa-gcWHCfG6rpUr-3" target="bTMUhpa-gcWHCfG6rpUr-9">
          <mxGeometry relative="1" as="geometry" />
        </mxCell>
        <mxCell id="bTMUhpa-gcWHCfG6rpUr-10" value="Penggalian dan Penumpukan Tanah dan Batu" style="rounded=0;whiteSpace=wrap;html=1;fontSize=16;labelBackgroundColor=none;" vertex="1" parent="bTMUhpa-gcWHCfG6rpUr-31">
          <mxGeometry x="692" y="99" width="199" height="60" as="geometry" />
        </mxCell>
        <mxCell id="bTMUhpa-gcWHCfG6rpUr-22" style="edgeStyle=orthogonalEdgeStyle;shape=connector;rounded=0;orthogonalLoop=1;jettySize=auto;html=1;entryX=1;entryY=0.5;entryDx=0;entryDy=0;labelBackgroundColor=default;strokeColor=default;align=center;verticalAlign=middle;fontFamily=Helvetica;fontSize=12;fontColor=default;endArrow=classic;startSize=8;endSize=8;" edge="1" parent="bTMUhpa-gcWHCfG6rpUr-31" source="bTMUhpa-gcWHCfG6rpUr-4" target="bTMUhpa-gcWHCfG6rpUr-10">
          <mxGeometry relative="1" as="geometry" />
        </mxCell>
        <mxCell id="bTMUhpa-gcWHCfG6rpUr-11" value="Pengangkutan Tanah ke Tempat Pemblendingan" style="rounded=0;whiteSpace=wrap;html=1;fontSize=16;labelBackgroundColor=none;" vertex="1" parent="bTMUhpa-gcWHCfG6rpUr-31">
          <mxGeometry x="1087" y="99" width="199" height="60" as="geometry" />
        </mxCell>
        <mxCell id="bTMUhpa-gcWHCfG6rpUr-21" style="edgeStyle=orthogonalEdgeStyle;rounded=0;orthogonalLoop=1;jettySize=auto;html=1;entryX=0;entryY=0.5;entryDx=0;entryDy=0;fontSize=12;startSize=8;endSize=8;exitX=0.5;exitY=1;exitDx=0;exitDy=0;" edge="1" parent="bTMUhpa-gcWHCfG6rpUr-31" source="bTMUhpa-gcWHCfG6rpUr-4" target="bTMUhpa-gcWHCfG6rpUr-11">
          <mxGeometry relative="1" as="geometry" />
        </mxCell>
        <mxCell id="bTMUhpa-gcWHCfG6rpUr-12" value="Pemecahan Batu menjadi Ukuran 30 - 40 cm" style="rounded=0;whiteSpace=wrap;html=1;fontSize=16;labelBackgroundColor=none;" vertex="1" parent="bTMUhpa-gcWHCfG6rpUr-31">
          <mxGeometry x="1378" y="102" width="200" height="60" as="geometry" />
        </mxCell>
        <mxCell id="bTMUhpa-gcWHCfG6rpUr-24" style="edgeStyle=orthogonalEdgeStyle;shape=connector;rounded=0;orthogonalLoop=1;jettySize=auto;html=1;entryX=1;entryY=0.5;entryDx=0;entryDy=0;labelBackgroundColor=default;strokeColor=default;align=center;verticalAlign=middle;fontFamily=Helvetica;fontSize=12;fontColor=default;endArrow=classic;startSize=8;endSize=8;exitX=0.5;exitY=1;exitDx=0;exitDy=0;" edge="1" parent="bTMUhpa-gcWHCfG6rpUr-31" source="bTMUhpa-gcWHCfG6rpUr-5" target="bTMUhpa-gcWHCfG6rpUr-12">
          <mxGeometry relative="1" as="geometry">
            <Array as="points">
              <mxPoint x="1760" y="82" />
              <mxPoint x="1618" y="82" />
              <mxPoint x="1618" y="132" />
            </Array>
          </mxGeometry>
        </mxCell>
        <mxCell id="bTMUhpa-gcWHCfG6rpUr-13" value="Pengangkutan Batu&amp;nbsp; Ukuran 30 - 40 cm ke Tempat Stone Crusher" style="rounded=0;whiteSpace=wrap;html=1;fontSize=16;labelBackgroundColor=none;" vertex="1" parent="bTMUhpa-gcWHCfG6rpUr-31">
          <mxGeometry x="1660" y="102" width="200" height="60" as="geometry" />
        </mxCell>
        <mxCell id="bTMUhpa-gcWHCfG6rpUr-23" style="edgeStyle=orthogonalEdgeStyle;shape=connector;rounded=0;orthogonalLoop=1;jettySize=auto;html=1;labelBackgroundColor=default;strokeColor=default;align=center;verticalAlign=middle;fontFamily=Helvetica;fontSize=12;fontColor=default;endArrow=classic;startSize=8;endSize=8;" edge="1" parent="bTMUhpa-gcWHCfG6rpUr-31" source="bTMUhpa-gcWHCfG6rpUr-5" target="bTMUhpa-gcWHCfG6rpUr-13">
          <mxGeometry relative="1" as="geometry" />
        </mxCell>
        <mxCell id="bTMUhpa-gcWHCfG6rpUr-14" value="Pemecahan Batu Ukuran 30 - 40 cm menjadi 5 - 7 cm" style="rounded=0;whiteSpace=wrap;html=1;fontSize=16;labelBackgroundColor=none;" vertex="1" parent="bTMUhpa-gcWHCfG6rpUr-31">
          <mxGeometry x="1938" y="102" width="200" height="60" as="geometry" />
        </mxCell>
        <mxCell id="bTMUhpa-gcWHCfG6rpUr-25" style="edgeStyle=orthogonalEdgeStyle;shape=connector;rounded=0;orthogonalLoop=1;jettySize=auto;html=1;entryX=0;entryY=0.5;entryDx=0;entryDy=0;labelBackgroundColor=default;strokeColor=default;align=center;verticalAlign=middle;fontFamily=Helvetica;fontSize=12;fontColor=default;endArrow=classic;startSize=8;endSize=8;exitX=0.5;exitY=1;exitDx=0;exitDy=0;" edge="1" parent="bTMUhpa-gcWHCfG6rpUr-31" source="bTMUhpa-gcWHCfG6rpUr-5" target="bTMUhpa-gcWHCfG6rpUr-14">
          <mxGeometry relative="1" as="geometry">
            <Array as="points">
              <mxPoint x="1760" y="82" />
              <mxPoint x="1898" y="82" />
              <mxPoint x="1898" y="132" />
            </Array>
          </mxGeometry>
        </mxCell>
        <mxCell id="bTMUhpa-gcWHCfG6rpUr-15" value="Pekerjaan Menuang Batu Ukuran 5 - 7 cm dan Tanah ke Alat Blending" style="rounded=0;whiteSpace=wrap;html=1;fontSize=16;labelBackgroundColor=none;" vertex="1" parent="bTMUhpa-gcWHCfG6rpUr-31">
          <mxGeometry x="2216" y="100" width="203" height="60" as="geometry" />
        </mxCell>
        <mxCell id="bTMUhpa-gcWHCfG6rpUr-29" style="edgeStyle=orthogonalEdgeStyle;shape=connector;rounded=0;orthogonalLoop=1;jettySize=auto;html=1;entryX=1;entryY=0.5;entryDx=0;entryDy=0;labelBackgroundColor=default;strokeColor=default;align=center;verticalAlign=middle;fontFamily=Helvetica;fontSize=12;fontColor=default;endArrow=classic;startSize=8;endSize=8;exitX=0.5;exitY=1;exitDx=0;exitDy=0;" edge="1" parent="bTMUhpa-gcWHCfG6rpUr-31" source="bTMUhpa-gcWHCfG6rpUr-7" target="bTMUhpa-gcWHCfG6rpUr-15">
          <mxGeometry relative="1" as="geometry">
            <Array as="points">
              <mxPoint x="2601" y="80" />
              <mxPoint x="2459" y="80" />
              <mxPoint x="2459" y="130" />
            </Array>
          </mxGeometry>
        </mxCell>
        <mxCell id="bTMUhpa-gcWHCfG6rpUr-16" value="Pekerjaan Blending Batu Ukuran 5 - 7 cm dan Tanah menjadi Agregat" style="rounded=0;whiteSpace=wrap;html=1;fontSize=16;labelBackgroundColor=none;" vertex="1" parent="bTMUhpa-gcWHCfG6rpUr-31">
          <mxGeometry x="2499" y="100" width="203" height="60" as="geometry" />
        </mxCell>
        <mxCell id="bTMUhpa-gcWHCfG6rpUr-27" style="edgeStyle=orthogonalEdgeStyle;shape=connector;rounded=0;orthogonalLoop=1;jettySize=auto;html=1;labelBackgroundColor=default;strokeColor=default;align=center;verticalAlign=middle;fontFamily=Helvetica;fontSize=12;fontColor=default;endArrow=classic;startSize=8;endSize=8;" edge="1" parent="bTMUhpa-gcWHCfG6rpUr-31" source="bTMUhpa-gcWHCfG6rpUr-7" target="bTMUhpa-gcWHCfG6rpUr-16">
          <mxGeometry relative="1" as="geometry" />
        </mxCell>
        <mxCell id="bTMUhpa-gcWHCfG6rpUr-17" value="Pemindahan Agregat ke Stockpile" style="rounded=0;whiteSpace=wrap;html=1;fontSize=16;labelBackgroundColor=none;" vertex="1" parent="bTMUhpa-gcWHCfG6rpUr-31">
          <mxGeometry x="2779" y="100" width="203" height="60" as="geometry" />
        </mxCell>
        <mxCell id="bTMUhpa-gcWHCfG6rpUr-30" style="edgeStyle=orthogonalEdgeStyle;shape=connector;rounded=0;orthogonalLoop=1;jettySize=auto;html=1;entryX=0;entryY=0.5;entryDx=0;entryDy=0;labelBackgroundColor=default;strokeColor=default;align=center;verticalAlign=middle;fontFamily=Helvetica;fontSize=12;fontColor=default;endArrow=classic;startSize=8;endSize=8;exitX=0.5;exitY=1;exitDx=0;exitDy=0;" edge="1" parent="bTMUhpa-gcWHCfG6rpUr-31" source="bTMUhpa-gcWHCfG6rpUr-7" target="bTMUhpa-gcWHCfG6rpUr-17">
          <mxGeometry relative="1" as="geometry">
            <Array as="points">
              <mxPoint x="2601" y="80" />
              <mxPoint x="2739" y="80" />
              <mxPoint x="2739" y="130" />
            </Array>
          </mxGeometry>
        </mxCell>
      </root>
    </mxGraphModel>
  </diagram>
</mxfile>
